HIERARCHY
ROOT Hips
{
	OFFSET 0.000000 0.000000 0.000000
	CHANNELS 6 Xposition Yposition Zposition Yrotation Xrotation Zrotation 
	JOINT LeftHip
	{
		OFFSET 0.094196 0.000343 -0.000038
		CHANNELS 3 Yrotation Xrotation Zrotation
		JOINT LeftKnee
		{
			OFFSET 0.000000 -0.468901 0.000041
			CHANNELS 3 Yrotation Xrotation Zrotation
			JOINT LeftAnkle
			{
				OFFSET 0.000000 -0.397674 0.000438
				CHANNELS 3 Yrotation Xrotation Zrotation
				JOINT LeftToe
				{
					OFFSET 0.000000 -0.090712 0.195501
					CHANNELS 3 Yrotation Xrotation Zrotation
					End Site
					{
						OFFSET 0.000000 0.000000 0.000000
					}
				}
			}
		}
	}
	JOINT RightHip
	{
		OFFSET -0.094196 0.000364 -0.000040
		CHANNELS 3 Yrotation Xrotation Zrotation
		JOINT RightKnee
		{
			OFFSET 0.000000 -0.468901 0.000041
			CHANNELS 3 Yrotation Xrotation Zrotation
			JOINT RightAnkle
			{
				OFFSET 0.000000 -0.397674 0.000438
				CHANNELS 3 Yrotation Xrotation Zrotation
				JOINT RightToe
				{
					OFFSET 0.000000 -0.090712 0.195501
					CHANNELS 3 Yrotation Xrotation Zrotation
					End Site
					{
						OFFSET 0.000000 0.000000 0.000000
					}
				}
			}
		}
	}
	JOINT Chest
	{
		OFFSET 0.000000 0.113860 -0.012651
		CHANNELS 3 Yrotation Xrotation Zrotation
		JOINT Chest3
		{
			OFFSET -0.002400 0.210882 -0.005802
			CHANNELS 3 Yrotation Xrotation Zrotation
			JOINT Chest4
			{
				OFFSET 0.000000 0.100637 -0.000145
				CHANNELS 3 Yrotation Xrotation Zrotation
				JOINT Neck
				{
					OFFSET 0.000000 0.138831 0.000000
					CHANNELS 3 Yrotation Xrotation Zrotation
					JOINT Head
					{
						OFFSET 0.000000 0.095420 0.000176
						CHANNELS 3 Yrotation Xrotation Zrotation
						End Site
						{
							OFFSET 0.000000 0.000000 0.000000
						}
					}
				}
				JOINT LeftCollar
				{
					OFFSET 0.029338 0.077908 0.000000
					CHANNELS 3 Yrotation Xrotation Zrotation
					JOINT LeftShoulder
					{
						OFFSET 0.140442 0.000000 0.000000
						CHANNELS 3 Yrotation Xrotation Zrotation
						JOINT LeftElbow
						{
							OFFSET 0.303173 0.000000 0.000000
							CHANNELS 3 Yrotation Xrotation Zrotation
							JOINT LeftWrist
							{
								OFFSET 0.261212 0.000000 0.000049
								CHANNELS 3 Yrotation Xrotation Zrotation
								End Site
								{
									OFFSET 0.000000 0.000000 0.000000
								}
							}
						}
					}
				}
				JOINT RightCollar
				{
					OFFSET -0.029338 0.077908 0.000000
					CHANNELS 3 Yrotation Xrotation Zrotation
					JOINT RightShoulder
					{
						OFFSET -0.140442 0.000000 0.000000
						CHANNELS 3 Yrotation Xrotation Zrotation
						JOINT RightElbow
						{
							OFFSET -0.303173 0.000000 0.000000
							CHANNELS 3 Yrotation Xrotation Zrotation
							JOINT RightWrist
							{
								OFFSET -0.261212 0.000000 0.000049
								CHANNELS 3 Yrotation Xrotation Zrotation
								End Site
								{
									OFFSET 0.000000 0.000000 0.000000
								}
							}
						}
					}
				}
			}
		}
	}
}
MOTION
Frames: 14
Frame Time: 0.016667
0.000000 0.000000 0.000000 173.956123 -2.879663 -10.265391 9.370103 -21.194564 24.838156 -3.863076 43.797391 -0.841393 12.934890 -19.544637 -14.515925 0.000000 -0.000000 0.000000 -3.159138 -17.122386 -7.380209 -3.435387 22.356939 0.250843 4.544862 2.810623 14.894025 -0.012266 -3.507907 0.788966 2.109872 15.612772 0.971351 1.770696 8.048213 0.815230 0.676729 11.039808 0.325505 2.126477 5.260751 4.010944 2.071776 -26.250669 6.958461 -11.478160 -2.937458 7.815600 -110.777056 -38.874737 29.909613 -5.138567 -47.519154 5.991072 9.399828 -6.537522 27.219763 2.490021 5.044607 4.363077 101.231625 -38.691555 -8.521569 33.689035 -39.074523 -10.650604 -9.857029 -3.919471 -30.334313 
0.000000 0.000000 0.000000 173.883905 -3.166039 -10.648395 9.206739 -21.560411 24.743192 -3.929224 45.220177 -0.828522 13.116131 -20.507382 -14.287636 0.000000 -0.000000 0.000000 -3.161428 -16.732336 -7.374382 -3.185304 21.698767 0.212566 4.449989 3.445537 14.759013 -0.025070 -3.273823 1.206272 2.174850 15.769813 0.909739 1.834509 8.187750 0.760179 0.699990 11.092035 0.304790 2.185384 5.224807 4.160404 2.105864 -26.315718 7.230516 -11.347868 -2.947784 7.836085 -110.704238 -38.549432 30.093982 -4.939844 -47.391385 5.995789 9.544589 -6.387115 27.318691 2.531977 5.063431 4.336561 101.476787 -38.550570 -8.952735 34.272271 -39.556626 -10.942566 -10.051941 -3.917023 -30.515338 
0.000000 0.000000 0.000000 173.758318 -3.409710 -11.003494 8.718375 -21.774657 24.742430 -3.674544 46.572330 -0.797612 13.426578 -21.369291 -14.125685 0.000000 -0.000000 0.000000 -3.466652 -16.430652 -7.275128 -2.749034 21.026193 0.151691 4.502010 4.078852 14.475654 -0.023170 -2.306444 0.985946 2.257455 15.862369 0.839084 1.915084 8.269864 0.697246 0.729650 11.122674 0.281445 2.256017 5.250061 4.316577 2.163160 -26.267592 7.507111 -11.210039 -2.846646 7.878060 -110.792649 -38.432123 30.310751 -4.785940 -47.300307 6.148617 9.626291 -6.319528 27.442355 2.567627 5.053729 4.304590 101.354377 -38.316999 -9.062365 35.071880 -39.878965 -11.284289 -10.223844 -3.938961 -30.494064 
0.000000 0.000000 0.000000 173.589054 -3.638440 -11.329333 8.083682 -21.867708 24.767265 -3.238663 47.824517 -0.732269 13.823968 -22.140750 -14.000537 0.000000 -0.000000 0.000000 -3.945576 -16.168356 -7.129573 -2.202919 20.340318 0.087211 4.626773 4.725373 14.096662 -0.011258 -0.971131 0.426312 2.340097 15.924654 0.766587 1.995948 8.325092 0.632961 0.759478 11.143207 0.257718 2.345854 5.309308 4.459966 2.268539 -26.157536 7.745494 -11.048244 -2.683352 7.917875 -110.951728 -38.439347 30.548394 -4.665695 -47.229279 6.381180 9.659468 -6.301303 27.586003 2.612616 5.018721 4.266738 101.001000 -38.041160 -8.958964 36.044016 -40.099058 -11.641826 -10.409697 -3.986730 -30.377518 
0.000000 0.000000 0.000000 173.456065 -3.867773 -11.654073 7.596548 -21.953499 24.783517 -2.938104 48.897949 -0.717565 14.152866 -22.835689 -13.816436 0.000000 -0.000000 0.000000 -4.297983 -15.857682 -6.997620 -1.802074 19.636113 0.037075 4.610566 5.432985 13.791726 0.000000 -0.000000 0.000000 2.427572 16.006326 0.714926 2.078878 8.397592 0.586700 0.790239 11.170261 0.240735 2.428065 5.348353 4.600540 2.359070 -26.084795 7.983260 -10.949442 -2.583143 7.949649 -111.080986 -38.535264 30.745364 -4.623717 -47.040827 6.577771 9.602210 -6.351568 27.726439 2.625300 5.019973 4.272746 100.734098 -37.931363 -8.904035 37.026624 -40.233516 -11.979362 -10.537436 -4.074345 -30.338168 
0.000000 0.000000 0.000000 173.401859 -4.116230 -12.000184 7.400456 -22.069200 24.789767 -2.950649 49.733228 -0.817894 14.334058 -23.451500 -13.506372 0.000000 -0.000000 0.000000 -4.387431 -15.437074 -6.888514 -1.636730 18.895688 0.006601 4.325669 6.231602 13.638068 0.000507 0.362472 -0.289880 2.528984 16.142044 0.704619 2.169735 8.518237 0.575936 0.824247 11.215499 0.236975 2.492930 5.337560 4.737080 2.413954 -26.103835 8.224687 -10.975889 -2.621387 7.964486 -111.161680 -38.767855 30.877931 -4.699000 -46.579130 6.711104 9.394707 -6.508639 27.943321 2.575252 5.090293 4.350639 100.683368 -38.115152 -8.996642 38.030801 -40.301669 -12.299476 -10.579134 -4.243293 -30.489192 
0.000000 0.000000 0.000000 173.384161 -4.364444 -12.345817 7.351755 -22.181593 24.787721 -3.114396 50.394091 -0.976890 14.442801 -23.990299 -13.131365 0.000000 -0.000000 0.000000 -4.350365 -14.972497 -6.788025 -1.616037 18.140451 -0.010315 3.898401 7.094269 13.547096 -0.005461 0.360051 -0.445278 2.635776 16.297270 0.715513 2.263111 8.656335 0.583331 0.859341 11.267367 0.239948 2.549749 5.306490 4.870795 2.452913 -26.160058 8.465811 -11.067095 -2.721086 7.971558 -111.212385 -39.089593 30.971587 -4.849013 -46.000907 6.802763 9.097126 -6.733724 28.157874 2.494264 5.198142 4.472278 100.719221 -38.466222 -9.135919 39.034912 -40.289643 -12.580017 -10.561383 -4.448844 -30.720913 
0.000000 0.000000 0.000000 173.355454 -4.570947 -12.652785 7.312018 -22.300746 24.750035 -3.238167 50.989352 -1.099325 14.553659 -24.473693 -12.785188 0.000000 -0.000000 0.000000 -4.296774 -14.570379 -6.719760 -1.723174 17.426670 -0.011374 3.495354 7.983196 13.437941 0.000000 -0.000000 0.000000 2.725992 16.418200 0.708903 2.343664 8.763912 0.575763 0.889504 11.307725 0.237236 2.600043 5.290099 5.015452 2.473356 -26.188290 8.732144 -11.126051 -2.779080 7.991292 -111.187751 -39.321760 31.037137 -4.995210 -45.637484 6.811495 8.850236 -6.932935 28.107027 2.433858 5.308640 4.602612 100.761584 -38.815802 -9.278844 39.825709 -40.168605 -12.744047 -10.499468 -4.576960 -30.870870 
0.000000 0.000000 0.000000 173.299011 -4.700876 -12.894056 7.246568 -22.453014 24.639905 -3.242671 51.551032 -1.129549 14.685800 -24.897208 -12.507872 0.000000 -0.000000 0.000000 -4.221372 -14.286708 -6.726010 -2.006458 16.775304 0.023907 3.175082 8.906020 13.264824 0.017755 -0.920685 1.609850 2.791711 16.477369 0.672901 2.405668 8.816435 0.543306 0.912543 11.327294 0.225228 2.643214 5.304372 5.169261 2.476039 -26.158914 9.019559 -11.105425 -2.737426 8.035712 -111.069722 -39.393598 31.094145 -5.080139 -45.687471 6.675178 8.764075 -7.071015 27.550231 2.418320 5.411149 4.739789 100.812379 -39.143274 -9.441918 40.252911 -39.922642 -12.710241 -10.411530 -4.550803 -30.799435 
0.000000 0.000000 0.000000 173.230367 -4.789235 -13.096541 7.190646 -22.612278 24.494234 -3.204419 52.046661 -1.119207 14.822192 -25.265548 -12.260542 0.000000 -0.000000 0.000000 -4.131834 -14.065459 -6.764142 -2.415957 16.167538 0.080932 2.874194 9.851809 13.069449 0.005564 -2.167565 3.838076 2.839888 16.502630 0.618902 2.454084 8.838721 0.495727 0.930385 11.335431 0.207567 2.680048 5.333721 5.334095 2.460801 -26.100662 9.332019 -11.051478 -2.654851 8.092367 -110.876169 -39.375960 31.122392 -5.158003 -45.952504 6.456416 8.736377 -7.184458 26.725805 2.423010 5.515853 4.885461 100.869192 -39.469072 -9.609211 40.469998 -39.569849 -12.562538 -10.280718 -4.450618 -30.644113 
0.000000 0.000000 0.000000 173.150348 -4.899786 -13.302615 7.110692 -22.708360 24.396075 -3.163405 52.487132 -1.133348 14.984587 -25.614734 -12.020521 0.000000 -0.000000 0.000000 -4.157017 -13.843169 -6.734081 -2.786300 15.598077 0.110865 2.577118 10.754059 12.907345 -0.031321 -3.092563 5.473306 2.870562 16.523217 0.542764 2.489337 8.856828 0.429225 0.943116 11.341909 0.182676 2.714272 5.366135 5.529298 2.423967 -26.035131 9.707140 -11.007236 -2.603656 8.144308 -110.615696 -39.301778 31.072080 -5.323765 -46.168859 6.307754 8.584655 -7.293280 26.087146 2.425180 5.618900 5.009446 100.839225 -39.686705 -9.685445 40.721611 -39.130456 -12.479190 -10.074849 -4.398930 -30.657975 
0.000000 0.000000 0.000000 173.050616 -5.059312 -13.518903 6.998015 -22.688748 24.371495 -3.150775 52.845091 -1.220824 15.203927 -25.954004 -11.771244 0.000000 -0.000000 0.000000 -4.366601 -13.589549 -6.595291 -3.041938 15.049182 0.085584 2.285055 11.606627 12.819361 -0.050178 -3.431748 5.900355 2.874142 16.536840 0.429594 2.504459 8.868656 0.330948 0.947989 11.345873 0.145634 2.749993 5.406725 5.768361 2.366758 -25.952271 10.169577 -10.974376 -2.611846 8.185454 -110.218061 -39.150232 30.852379 -5.669670 -46.255355 6.334276 8.182251 -7.394250 25.845841 2.430481 5.730209 5.101747 100.662982 -39.738542 -9.602778 41.049752 -38.525698 -12.522712 -9.763725 -4.450096 -30.988280 
0.000000 0.000000 0.000000 172.939873 -5.241215 -13.738568 6.862126 -22.605388 24.393503 -3.139731 53.147414 -1.335790 15.449822 -26.274285 -11.529753 0.000000 -0.000000 0.000000 -4.689518 -13.331909 -6.391717 -3.255803 14.536352 0.034956 1.996294 12.417027 12.764011 -0.052815 -3.484131 5.716080 2.860423 16.545585 0.294269 2.506588 8.876024 0.213758 0.947810 11.348041 0.101377 2.782907 5.451638 6.037628 2.287880 -25.859343 10.694146 -10.952060 -2.651154 8.222235 -109.755967 -38.939792 30.556232 -6.107110 -46.292814 6.433396 7.648587 -7.489267 25.791917 2.433155 5.839970 5.171901 100.399468 -39.680499 -9.429094 41.409340 -37.832607 -12.633858 -9.387371 -4.546065 -31.495346 
0.000000 0.000000 0.000000 172.844981 -5.429171 -13.983879 6.696001 -22.544236 24.465970 -3.082954 53.486692 -1.401577 15.651744 -26.583806 -11.323464 0.000000 -0.000000 0.000000 -5.042828 -13.093193 -6.149884 -3.485510 14.103145 -0.005469 1.692412 13.139430 12.677019 -0.050505 -3.462118 5.514320 2.858753 16.585307 0.177244 2.517471 8.910953 0.112273 0.951061 11.360598 0.063001 2.804207 5.475121 6.315916 2.179408 -25.804234 11.244475 -10.979918 -2.708769 8.256210 -109.448764 -38.764777 30.405972 -6.461946 -46.262170 6.446011 7.164845 -7.611086 25.746279 2.393087 5.915223 5.219241 100.131369 -39.577804 -9.270862 41.910722 -37.304892 -12.803857 -9.015364 -4.639155 -31.999121 
